PathFileType	4	(X/Y/Z)	C:/Users/opensim2020/Desktop/walking_exp_matlab/subject06_walking17_straight_03.trc	
DataRate	CameraRate	NumFrames	NumMarkers	Units	OrigDataRate	OrigDataStartFrame	OrigNumFrames	
100.00	100.00	6	45	mm	100.00	3466	295	
Frame#	Time	LFHD			RFHD			LBHD			RBHD			C7			T10			CLAV			STRN			RBAK			LSHO			LUPA			LELB			LFRM			LWRA			LWRB			LFIN			RSHO			RUPA			RELB			RFRM			RWRA			RWRB			RFIN			LASI			RASI			LPSI			RPSI			LTHI			LKNE			LTIB			LANK			LHEE			LTOE			RTHI			RKNE			RTIB			RANK			RHEE			RTOE			*39			*40			*41			*42			*43			*44			
		X1	Y1	Z1	X2	Y2	Z2	X3	Y3	Z3	X4	Y4	Z4	X5	Y5	Z5	X6	Y6	Z6	X7	Y7	Z7	X8	Y8	Z8	X9	Y9	Z9	X10	Y10	Z10	X11	Y11	Z11	X12	Y12	Z12	X13	Y13	Z13	X14	Y14	Z14	X15	Y15	Z15	X16	Y16	Z16	X17	Y17	Z17	X18	Y18	Z18	X19	Y19	Z19	X20	Y20	Z20	X21	Y21	Z21	X22	Y22	Z22	X23	Y23	Z23	X24	Y24	Z24	X25	Y25	Z25	X26	Y26	Z26	X27	Y27	Z27	X28	Y28	Z28	X29	Y29	Z29	X30	Y30	Z30	X31	Y31	Z31	X32	Y32	Z32	X33	Y33	Z33	X34	Y34	Z34	X35	Y35	Z35	X36	Y36	Z36	X37	Y37	Z37	X38	Y38	Z38	X39	Y39	Z39	X40	Y40	Z40	X41	Y41	Z41	X42	Y42	Z42	X43	Y43	Z43	X44	Y44	Z44	X45	Y45	Z45	

259	2.580	-1065.21802	881.14783	1652.66248	-937.57184	856.28180	1631.00500	-1096.71936	753.54602	1595.27136	-970.51111	729.79053	1578.69849	-1042.90210	745.28204	1434.60059	-1034.69189	717.71802	1104.53918	-1031.76733	853.92542	1357.27002	-1040.69971	896.97180	1182.33484	-973.11029	667.94305	1259.32837	-1197.22083	816.72858	1389.54443	-1267.31006	859.54144	1190.51477	-1278.55786	887.52399	1080.21448	-1281.60754	977.29840	957.58704	-1215.91553	1072.64465	887.82739	-1261.29614	1031.40930	852.90460	-1246.97217	1105.99988	804.33142	-873.89246	795.90790	1383.84912	-797.39648	741.55664	1183.91187	-788.06390	744.72760	1061.30432	-772.87750	751.36859	940.55103	-800.91351	804.56317	797.92230	-766.62854	747.27246	802.74548	-761.24371	779.24927	724.98584	-1148.44141	885.20099	939.53882	-927.01007	903.96552	953.73572	-1108.84412	728.75513	974.16797	-940.68787	750.20062	982.55676	-1184.09875	763.24078	629.55060	-1157.90356	728.12579	469.09134	-1139.80762	577.57495	258.29208	-1090.20203	492.71274	109.65990	-1044.98193	449.62042	113.95303	-1083.01160	614.81738	34.21301	-865.69116	899.50177	629.21832	-897.90436	930.23193	510.76599	-903.82324	944.21051	245.63242	-954.38544	979.24988	64.24948	-1005.20868	949.69287	38.64688	-943.14630	1133.08521	50.94202	-1024.69299	769.96594	1683.33557															 
260	2.590	-1063.42200	888.45496	1653.98169	-935.83984	863.89355	1632.04285	-1094.79150	760.72845	1596.80383	-968.55951	737.23035	1579.86194	-1041.52222	752.66876	1435.65808	-1034.15869	725.82019	1105.96753	-1030.60706	861.69635	1358.69238	-1039.88037	905.05536	1183.89038	-971.90277	676.13239	1260.49670	-1195.98450	824.34338	1391.32666	-1265.76355	866.87610	1192.27075	-1276.79749	894.67059	1081.93616	-1280.62988	982.53650	957.99078	-1215.86694	1077.06494	886.37939	-1261.29602	1035.12024	852.34088	-1248.03320	1109.21240	802.87408	-872.82538	803.72278	1385.16235	-796.28766	750.61328	1184.99939	-787.17145	754.09149	1062.45605	-771.87445	760.51642	941.71460	-800.09479	813.55542	798.91895	-765.63672	756.45184	803.81348	-760.29126	788.33331	725.97125	-1147.24646	893.77551	940.91522	-926.62598	912.35834	956.20868	-1108.76306	737.62549	975.25897	-940.91699	758.39734	984.34845	-1183.55115	772.84821	630.16602	-1157.36450	738.91968	469.49963	-1139.39307	584.30817	261.63507	-1090.65137	496.59811	114.63992	-1045.38916	453.71722	120.08554	-1082.83459	615.59283	34.55961	-864.53534	906.16669	630.90564	-896.30859	936.11798	511.76279	-902.97504	945.66083	246.02097	-953.52045	979.61957	64.12476	-1004.77136	950.39746	39.20340	-940.06299	1133.26917	48.70256	-1022.58685	777.41748	1684.67114															 
261	2.600	-1061.61072	895.69196	1655.59021	-934.07800	871.41382	1633.12744	-1092.92358	767.88074	1598.42749	-966.75702	744.62946	1581.09656	-1040.32507	760.08966	1436.80908	-1033.61133	733.77948	1107.60034	-1029.52222	869.49103	1360.21619	-1039.00183	913.15015	1185.56213	-970.87384	684.23480	1261.79761	-1194.64392	831.81940	1393.19043	-1264.12024	873.82434	1194.03882	-1274.97900	901.46313	1083.96362	-1279.74658	987.40808	958.68341	-1215.92358	1081.10803	885.13721	-1261.41895	1038.37207	852.04828	-1249.05237	1111.78381	801.41309	-871.81287	811.57190	1386.71875	-795.29877	759.64783	1186.35181	-786.42419	763.47180	1063.93152	-771.11676	770.12292	943.21222	-799.33545	822.64240	800.36206	-764.46454	765.73901	805.34869	-759.45984	797.51709	727.31128	-1146.48267	902.75043	942.35065	-926.02832	920.42804	958.80371	-1108.61475	746.53595	976.57416	-940.99896	766.49353	986.14429	-1182.95679	782.90424	630.75586	-1156.92542	750.36896	469.84671	-1139.33777	591.48816	265.30704	-1091.09180	500.99899	119.85608	-1045.74500	458.41565	126.61182	-1082.52026	616.41766	34.79769	-863.28436	912.60828	632.24969	-894.59979	941.38983	512.53882	-902.05487	947.87585	246.25215	-952.85724	979.98694	63.93991	-1004.44043	950.85547	39.57561	-938.08063	1133.32117	46.67840	-1020.63318	784.74994	1686.19885															 
262	2.610	-1059.76807	902.92798	1657.19470	-932.28577	878.81042	1634.27747	-1091.17554	775.14758	1600.20178	-965.03345	752.06793	1582.34155	-1039.06372	767.54968	1438.02551	-1032.98438	741.95557	1109.08521	-1028.42175	877.32855	1361.83154	-1038.08899	921.26141	1187.34167	-969.86621	692.29651	1263.15503	-1193.33167	839.22296	1395.31165	-1262.62415	880.84467	1196.15308	-1273.18640	907.90479	1086.03210	-1279.17456	992.11554	959.72540	-1216.09949	1084.69934	883.91754	-1261.68726	1041.24658	851.87988	-1250.06470	1113.87439	799.97632	-870.83649	819.35693	1388.44104	-794.34363	768.61975	1187.85840	-785.69434	772.78802	1065.55164	-770.11096	779.42938	944.99652	-798.49615	831.96783	801.95721	-763.38251	775.25952	807.03149	-758.66565	806.87854	728.80579	-1145.44324	911.90350	943.85699	-924.96271	928.26672	961.13953	-1108.15759	755.41809	977.97607	-940.79572	774.63562	987.83356	-1182.35229	793.32788	631.36847	-1156.56189	762.29083	470.10483	-1139.17810	599.36365	269.06631	-1091.47156	506.00009	125.21667	-1046.05981	463.82312	133.34798	-1082.19739	617.45972	35.10153	-861.90771	918.51733	633.38184	-892.94629	946.10876	513.06305	-901.33765	950.10828	246.36180	-952.59747	980.26587	63.84109	-1004.16455	950.99738	39.73756	-938.24591	1133.85474	45.40994	-1018.30902	791.98370	1687.50488															 
263	2.620	-1057.89832	910.18433	1658.88403	-930.47919	886.28180	1635.45825	-1089.46277	782.32251	1601.98877	-963.39526	759.35883	1583.54724	-1037.90466	774.97620	1439.35498	-1032.21484	749.87372	1110.71033	-1027.22363	885.00763	1363.44495	-1037.13403	929.38135	1189.07861	-968.71332	700.30249	1264.71399	-1192.00745	846.54889	1397.49341	-1261.24573	887.76678	1198.37463	-1271.60181	913.75708	1088.03516	-1278.67615	996.26978	960.60864	-1216.53418	1088.14929	882.90430	-1262.10144	1043.92041	851.92706	-1251.21729	1115.85974	798.77301	-869.90259	827.20392	1390.13977	-793.31799	777.48560	1189.44775	-784.91138	781.88599	1067.21863	-769.26233	788.94672	946.77100	-797.64056	841.45074	803.59912	-762.21808	784.92651	808.76727	-757.77747	816.52875	730.35187	-1144.14478	920.63318	945.37567	-923.60883	935.77307	962.99200	-1107.63123	764.14435	979.54340	-940.27332	782.52173	989.38196	-1181.77502	803.99072	631.94617	-1156.32581	774.51007	470.27731	-1138.99585	607.70544	272.79160	-1091.54333	511.27393	130.84831	-1046.24365	469.93356	140.22586	-1081.72632	618.63239	35.33799	-860.67297	923.29572	633.78314	-891.46478	950.22845	513.32690	-900.98895	952.26581	246.50800	-952.62482	980.85474	63.88166	-1003.97687	951.04657	39.85418	-939.95520	1134.74182	44.62016	-1016.38538	799.31873	1689.11975															 
264	2.630	-1056.13232	917.39978	1660.50012	-928.84851	893.40625	1636.50659	-1087.94324	789.57074	1603.71497	-961.89539	766.70337	1584.81482	-1036.69836	782.51526	1440.66467	-1031.37537	757.75531	1112.29736	-1026.10327	892.64777	1365.03784	-1036.08777	937.45404	1190.77112	-967.57581	708.27252	1266.25940	-1190.69421	853.87689	1399.56177	-1260.04236	894.58325	1200.52563	-1270.22803	919.29224	1089.86719	-1277.35559	999.43628	960.85718	-1217.12280	1091.43286	881.98138	-1262.53967	1046.47620	851.95282	-1252.22522	1117.54138	797.36511	-868.95557	834.91455	1391.73926	-792.20795	786.06647	1190.99353	-783.94269	790.82849	1068.81384	-768.12213	798.17590	948.42102	-796.84705	851.06543	805.29633	-761.22235	794.74438	810.38458	-756.87683	826.37762	731.92822	-1142.45508	929.14050	947.02362	-922.03235	943.20972	964.40234	-1106.94763	772.71027	981.00543	-939.54529	790.36340	990.78827	-1181.13586	814.84088	632.55005	-1156.25891	786.81219	470.52350	-1138.78552	616.59796	276.36459	-1091.81323	517.37970	136.40314	-1046.33447	476.73160	147.03802	-1081.30115	620.20648	35.67099	-859.50391	927.69299	634.12354	-890.24786	954.08936	513.53906	-900.93915	954.67206	246.89249	-952.75732	981.42426	64.09414	-1003.90302	951.09625	40.01631	-941.88293	1135.73022	43.74291	-1014.46967	806.56293	1690.59180															 
